<?xml version="1.0" encoding="UTF-8"?>
<svg xmlns="http://www.w3.org/2000/svg" xmlns:xlink="http://www.w3.org/1999/xlink" width="23px" height="20px" viewBox="0 0 22 20" version="1.1">
<g id="surface1">
<path style=" stroke:none;fill-rule:nonzero;fill:rgb(0%,0%,0%);fill-opacity:1;" d="M 20.816406 4.597656 C 20.957031 4.109375 20.816406 3.75 20.136719 3.75 L 17.886719 3.75 C 17.3125 3.75 17.050781 4.058594 16.910156 4.402344 C 16.910156 4.402344 15.761719 7.257812 14.144531 9.109375 C 13.621094 9.644531 13.378906 9.816406 13.09375 9.816406 C 12.953125 9.816406 12.734375 9.644531 12.734375 9.15625 L 12.734375 4.597656 C 12.734375 4.011719 12.574219 3.75 12.101562 3.75 L 8.5625 3.75 C 8.203125 3.75 7.992188 4.023438 7.992188 4.277344 C 7.992188 4.832031 8.800781 4.960938 8.882812 6.523438 L 8.882812 9.914062 C 8.882812 10.65625 8.753906 10.792969 8.46875 10.792969 C 7.703125 10.792969 5.847656 7.925781 4.746094 4.644531 C 4.527344 4.007812 4.308594 3.75 3.730469 3.75 L 1.480469 3.75 C 0.839844 3.75 0.710938 4.058594 0.710938 4.402344 C 0.710938 5.011719 1.472656 8.039062 4.265625 12.039062 C 6.125 14.769531 8.746094 16.25 11.128906 16.25 C 12.5625 16.25 12.738281 15.921875 12.738281 15.355469 C 12.738281 12.746094 12.609375 12.5 13.324219 12.5 C 13.660156 12.5 14.230469 12.671875 15.566406 13.988281 C 17.097656 15.550781 17.347656 16.25 18.203125 16.25 L 20.453125 16.25 C 21.09375 16.25 21.417969 15.921875 21.230469 15.273438 C 20.804688 13.910156 17.914062 11.105469 17.785156 10.917969 C 17.449219 10.480469 17.546875 10.285156 17.785156 9.894531 C 17.789062 9.890625 20.535156 5.9375 20.816406 4.597656 Z M 20.816406 4.597656 "/>
</g>
</svg>
